<?xml version="1.0" encoding="utf-8"?>
<!-- Generator: Adobe Illustrator 22.0.1, SVG Export Plug-In . SVG Version: 6.00 Build 0)  -->
<svg version="1.1" id="OBJECTS" xmlns="http://www.w3.org/2000/svg" xmlns:xlink="http://www.w3.org/1999/xlink" x="0px" y="0px"
	 viewBox="0 0 155.3 29.4" style="enable-background:new 0 0 155.3 29.4;" xml:space="preserve">
<style type="text/css">
	.st0{fill:#EFA822;}
</style>
<g>
	<g>
		<path class="st0" d="M2.9,24.9C9.3,17.9,18.2,13.4,27.5,12c4.6-0.7,9.4-0.7,14,0.2c5.1,0.9,9.9,3,14.4,5.3
			c4.8,2.5,9.4,5.3,14.2,7.5c5.1,2.4,10.6,3.9,16.3,4.2c5.7,0.3,11.4-0.4,16.8-2.2c5.2-1.8,10-4.5,14.7-7.3
			c10.1-6.1,22.2-14,34.5-9.7c1.4,0.5,3.7-1.5,1.8-2.1c-11-3.9-22.5,1-32,6.5c-4.9,2.9-9.6,6-14.8,8.4c-5.3,2.5-11,4-16.9,4.1
			c-6,0.1-11.8-1.2-17.3-3.6c-5.2-2.3-10.1-5.3-15.1-7.9c-4.6-2.4-9.4-4.5-14.6-5.5c-4.7-1-9.6-1.1-14.4-0.6
			c-11,1.3-21.4,6.3-29,14.4c-0.5,0.6-0.2,1.3,0.4,1.5C1.4,25.8,2.4,25.4,2.9,24.9L2.9,24.9z"/>
	</g>
	<g>
		<path class="st0" d="M126.6,1.7c8.4,1,16.7,2.6,24.9,4.8c-0.1-0.3-0.2-0.7-0.3-1c-4.7,3.6-9,7.6-13.1,11.9
			c-0.5,0.6,0.5,0.8,0.8,0.8c0.7,0,1.6-0.3,2.1-0.8c3.9-4.1,8.2-8,12.7-11.5c0.5-0.4,0.3-0.8-0.3-1c-8.2-2.2-16.5-3.8-24.9-4.8
			c-0.7-0.1-1.7,0.1-2.2,0.6C125.9,1.1,125.9,1.6,126.6,1.7L126.6,1.7z"/>
	</g>
</g>
</svg>
