<?xml version="1.0" encoding="utf-8"?>
<!-- Generator: Adobe Illustrator 22.0.1, SVG Export Plug-In . SVG Version: 6.00 Build 0)  -->
<svg version="1.1" id="Слой_1" xmlns="http://www.w3.org/2000/svg" xmlns:xlink="http://www.w3.org/1999/xlink" x="0px" y="0px"
	 viewBox="0 0 1110 250" style="enable-background:new 0 0 1110 250;" xml:space="preserve">
<style type="text/css">
	.st0{fill:#CBD1D9;}
</style>
<path class="st0" d="M996,299.5H114c-3.2,0-6-1.7-7.5-4.5L18,127.7c-0.7-1.3-0.7-4.1,0-5.3L106.5-45c1.5-2.8,4.4-4.5,7.5-4.5h882
	c3.2,0,6,1.7,7.5,4.5l88.5,167.3c0.7,1.3,0.7,4.1,0,5.3L1003.5,295C1002,297.8,999.1,299.5,996,299.5z M114-48.5
	c-2.8,0-5.3,1.5-6.6,4L18.9,122.8c-0.5,1-0.5,3.4,0,4.4l88.5,167.3c1.3,2.5,3.8,4,6.6,4h882c2.8,0,5.3-1.5,6.6-4l88.5-167.3
	c0.5-1,0.5-3.4,0-4.4l-88.5-167.3c-1.3-2.5-3.8-4-6.6-4H114z"/>
</svg>
