<?xml version="1.0" encoding="utf-8"?>
<!-- Generator: Adobe Illustrator 22.0.1, SVG Export Plug-In . SVG Version: 6.00 Build 0)  -->
<svg version="1.1" id="Слой_1" xmlns="http://www.w3.org/2000/svg" xmlns:xlink="http://www.w3.org/1999/xlink" x="0px" y="0px"
	 viewBox="0 0 1110 497" style="enable-background:new 0 0 1110 497;" xml:space="preserve">
<style type="text/css">
	.st0{fill:#CBD1D9;}
</style>
<path class="st0" d="M1087,497H23c-4.7,0-8.5-3.8-8.5-8.5V57.1c0-4.5,3.6-8.3,8.1-8.5L1086.6,0c2.3-0.1,4.6,0.7,6.3,2.3
	c1.7,1.6,2.6,3.8,2.6,6.1v480C1095.5,493.2,1091.7,497,1087,497z M1087,1c-0.1,0-0.2,0-0.4,0L22.7,49.6c-4,0.2-7.2,3.5-7.2,7.5
	v431.4c0,4.1,3.4,7.5,7.5,7.5h1064c4.1,0,7.5-3.4,7.5-7.5V8.5c0-2.1-0.8-4-2.3-5.4C1090.8,1.7,1088.9,1,1087,1z"/>
</svg>
